<svg xmlns="http://www.w3.org/2000/svg" width="33.676" height="41.169" viewBox="0 0 33.676 41.169">
  <path id="Trazado_12" data-name="Trazado 12" d="M338.161,156.4a10.582,10.582,0,0,0-3.5,3.6,8.442,8.442,0,0,0-.927,3.911,8.172,8.172,0,0,0,.55,3.047,10.057,10.057,0,0,0,1.555,2.623,10.624,10.624,0,0,0,3.361,2.466,22.479,22.479,0,0,1-2.827,5.45,17.057,17.057,0,0,1-3.471,3.942,5.023,5.023,0,0,1-2.969,1.162,9.248,9.248,0,0,1-3.047-.723l-.6-.22-.974-.408a7.9,7.9,0,0,0-2.293-.314,8.786,8.786,0,0,0-2.89.566l-.754.283-.942.377a6.194,6.194,0,0,1-2.262.44q-2.388,0-5.12-3.346a24.6,24.6,0,0,1-4.131-7.194,22.617,22.617,0,0,1-1.4-7.775,12.5,12.5,0,0,1,2.874-8.419A9.738,9.738,0,0,1,316.2,152.5a8.591,8.591,0,0,1,3.361.66l.723.283.754.314a4.565,4.565,0,0,0,1.6.408,4.774,4.774,0,0,0,1.759-.346l1.005-.377.723-.283a11.015,11.015,0,0,1,3.9-.66,9.862,9.862,0,0,1,8.136,3.9m-7.979-14.97q.063.691.063,1.068a8.382,8.382,0,0,1-1.131,4.021,8.544,8.544,0,0,1-2.953,3.22,7.4,7.4,0,0,1-4.021,1.147,9.953,9.953,0,0,1-.094-1.1,7.407,7.407,0,0,1,.989-3.5,9.615,9.615,0,0,1,2.686-3.126,8.485,8.485,0,0,1,3.832-1.634q.189-.031.628-.094" transform="translate(-305.522 -141.43)" fill="#1d1d1b"/>
</svg>
