<svg id="Delivery-Icon" xmlns="http://www.w3.org/2000/svg" width="44.394" height="41.498" viewBox="0 0 44.394 41.498">
  <path id="Vector" d="M30.992,38.348a3.15,3.15,0,1,1,3.15,3.15A3.15,3.15,0,0,1,30.992,38.348Zm-12.61,0a3.15,3.15,0,1,1,3.15,3.15A3.15,3.15,0,0,1,18.382,38.348Zm.651-5.781a4.727,4.727,0,0,1-4.613-3.7L10.051,9.309l-1.359-5A1.58,1.58,0,0,0,7.171,3.152h-5.6A1.576,1.576,0,0,1,1.576,0h5.6a4.739,4.739,0,0,1,4.562,3.486l1.052,3.868h26.88a4.727,4.727,0,0,1,4.613,5.758L40.761,28.87a4.729,4.729,0,0,1-4.614,3.7Zm-1.538-4.384a1.567,1.567,0,0,0,1.538,1.232H36.147a1.567,1.567,0,0,0,1.538-1.232L41.2,12.425a1.576,1.576,0,0,0-1.537-1.919H13.548Zm-11.8.176a1.491,1.491,0,0,1-1.49-1.49V26.7a1.492,1.492,0,0,1,1.49-1.49H7.97A1.491,1.491,0,0,1,9.46,26.7v.17a1.491,1.491,0,0,1-1.489,1.49Zm21.614-4.2a1.579,1.579,0,0,1-1.174-.56l-2.654-3.152a1.576,1.576,0,1,1,2.41-2.03l1.5,1.777,4.539-4.975a1.576,1.576,0,1,1,2.328,2.124l-5.75,6.3a1.579,1.579,0,0,1-1.165.513ZM1.49,22.06A1.491,1.491,0,0,1,0,20.569V20.4a1.491,1.491,0,0,1,1.49-1.49H7.96A1.491,1.491,0,0,1,9.45,20.4v.17a1.492,1.492,0,0,1-1.49,1.49Zm2.1-6.3A1.492,1.492,0,0,1,2.1,14.27V14.1a1.491,1.491,0,0,1,1.49-1.49H5.867a1.491,1.491,0,0,1,1.49,1.49v.17a1.491,1.491,0,0,1-1.49,1.49Z" fill="#1cc555"/>
</svg>
