<svg id="logo" xmlns="http://www.w3.org/2000/svg" xmlns:xlink="http://www.w3.org/1999/xlink" width="301.5" height="56.584" viewBox="0 0 301.5 56.584">
  <defs>
    <clipPath id="clip-path">
      <rect id="Rectángulo_2" data-name="Rectángulo 2" width="301.5" height="56.584" fill="none"/>
    </clipPath>
  </defs>
  <g id="Grupo_2" data-name="Grupo 2" clip-path="url(#clip-path)">
    <path id="Trazado_1" data-name="Trazado 1" d="M19.079,27.129h.048a18.166,18.166,0,0,0,2.013-.084,6.109,6.109,0,0,0,1.732-.542c1.292-.655,1.921-2.245,1.921-4.856,0-2.653-.613-4.243-1.86-4.852a5.284,5.284,0,0,0-1.738-.6,23.408,23.408,0,0,0-4.878.061V11.8A10.49,10.49,0,0,0,16,8.777c-.6-1.672-2.363-2.52-5.233-2.52-2.714,0-4.34.581-4.939,1.72a4.112,4.112,0,0,0-.638,1.6A14.954,14.954,0,0,0,5.1,11.524v4.7l-1.035-.121a4.245,4.245,0,0,0-2.737.9A3.555,3.555,0,0,0,.3,18.821a13.958,13.958,0,0,0-.3,3.42,5.434,5.434,0,0,0,.993,3.646,3.355,3.355,0,0,0,2.624,1.19c.511,0,1.006-.021,1.479-.063v7.136c0,4.256,1.1,7.348,3.264,9.19,2.133,1.814,5.251,2.735,9.271,2.735a16.516,16.516,0,0,0,1.961-.088,6.068,6.068,0,0,0,1.721-.536C22.649,44.794,23.3,43.2,23.3,40.59c0-2.269-.549-3.677-1.675-4.3a4.889,4.889,0,0,0-1.767-.609,18.8,18.8,0,0,0-2.087-.088c-.333,0-.924-.042-1.125-.321a2.922,2.922,0,0,1-.325-1.663V26.963Z" transform="translate(0 -2.534)" fill="#0c0"/>
    <path id="Trazado_2" data-name="Trazado 2" d="M62.931,41.172l-.609.215a14.866,14.866,0,0,1-4.769.6,6.624,6.624,0,0,1-3.259-.927,3.105,3.105,0,0,1-1.228-1.094H65.2a6.109,6.109,0,0,0,4.288-1.817,7.216,7.216,0,0,0,1.933-5.482A11.633,11.633,0,0,0,69.4,26.1c-2.548-3.746-6.573-5.649-11.959-5.649A17.031,17.031,0,0,0,45.631,24.74a14.8,14.8,0,0,0-4.767,11.477,16.143,16.143,0,0,0,3.652,10.265,13.154,13.154,0,0,0,5.266,3.893,19.06,19.06,0,0,0,7.606,1.448c8.473,0,12.591-1.83,12.591-5.592a6.587,6.587,0,0,0-.806-2.844c-1.472-2.8-3.333-3.52-6.243-2.214m-8.692-9.365c2.059-1.672,4.337-1.454,5.342-.666a1.646,1.646,0,0,1,.669,1.4c0,.506-.1.957-1.311.957H52.892a4.088,4.088,0,0,1,1.346-1.687" transform="translate(-16.548 -8.28)" fill="#0c0"/>
    <path id="Trazado_3" data-name="Trazado 3" d="M106.876,12.889V38a15.929,15.929,0,0,1-.09,1.966,5.517,5.517,0,0,1-.536,1.663c-.688,1.294-2.331,1.909-5.04,1.909-2.59,0-4.194-.609-4.9-1.86a5.038,5.038,0,0,1-.62-1.742,16.761,16.761,0,0,1-.09-1.99V5.538a15.922,15.922,0,0,1,.09-1.966,5.542,5.542,0,0,1,.536-1.663C96.91.616,98.553,0,101.262,0c2.59,0,4.194.609,4.9,1.86a5.034,5.034,0,0,1,.62,1.742,16.616,16.616,0,0,1,.09,1.99V30.653" transform="translate(-38.712 0)" fill="#fc0"/>
    <path id="Trazado_4" data-name="Trazado 4" d="M145.958,25.122a16.276,16.276,0,0,0-22.294.024,14.633,14.633,0,0,0-4.907,11.286,14.239,14.239,0,0,0,2.485,8.2,16.448,16.448,0,0,0,6.081,5.455,16.234,16.234,0,0,0,7.458,1.848A16.865,16.865,0,0,0,142.2,50.2a15.7,15.7,0,0,0,6.1-5.407,14.646,14.646,0,0,0,2.514-8.415,14.636,14.636,0,0,0-4.85-11.255m-6.542,11.146a3.912,3.912,0,0,1-1.514,3.389,4.773,4.773,0,0,1-6.295.03,3.869,3.869,0,0,1-1.458-3.338,4,4,0,0,1,1.423-3.374,5.02,5.02,0,0,1,6.435-.045,3.889,3.889,0,0,1,1.41,3.338" transform="translate(-48.091 -8.39)" fill="#fc0"/>
    <path id="Trazado_5" data-name="Trazado 5" d="M377.129,23.863a9.113,9.113,0,0,0-6.266,2.048,3.492,3.492,0,0,0-1.079-1.224c-.829-.587-2.275-.875-4.424-.875-2.271,0-3.757.633-4.424,1.89a5.081,5.081,0,0,0-.544,1.591,15.012,15.012,0,0,0-.092,1.948V60.85a15.262,15.262,0,0,0,.09,1.942,4.723,4.723,0,0,0,.584,1.618,3.146,3.146,0,0,0,1.9,1.457,10.116,10.116,0,0,0,2.986.361,9.792,9.792,0,0,0,2.965-.364,3.109,3.109,0,0,0,1.866-1.494,5.04,5.04,0,0,0,.58-1.626,15.109,15.109,0,0,0,.088-1.948V51.63a10.174,10.174,0,0,0,5.8,1.5c3.242,0,6.317-1.485,9.136-4.413a14.424,14.424,0,0,0-.031-20.439c-2.841-2.926-5.913-4.41-9.133-4.41m2.337,14.687a3.625,3.625,0,0,1-1.187,2.65,3.879,3.879,0,0,1-2.867,1.172,3.49,3.49,0,0,1-2.729-1.172,3.821,3.821,0,0,1-1.1-2.65,3.981,3.981,0,0,1,1.084-2.69h0a3.5,3.5,0,0,1,2.8-1.19,3.7,3.7,0,0,1,2.874,1.178,3.844,3.844,0,0,1,1.125,2.7" transform="translate(-145.906 -9.643)" fill="#0c0"/>
    <path id="Trazado_6" data-name="Trazado 6" d="M437.443,24.147a4.571,4.571,0,0,0-2.106-1.345h0a14.794,14.794,0,0,0-2.055-.488,8.512,8.512,0,0,0-5.708.873,12.608,12.608,0,0,0-2.261,1.438,4.639,4.639,0,0,0-.347-.587c-.718-1.072-2.294-1.594-4.822-1.594-2.71,0-4.355.615-5.03,1.89a4.946,4.946,0,0,0-.546,1.623,15.973,15.973,0,0,0-.09,1.969l0,20.621a3.971,3.971,0,0,0,1.286,2.875,6.871,6.871,0,0,0,4.322,1.093c2.661,0,4.3-.587,5.022-1.817a4.991,4.991,0,0,0,.614-1.7,15.962,15.962,0,0,0,.09-1.969V35.669a2.325,2.325,0,0,1,1.007-1.887,4.338,4.338,0,0,1,4.358-.506,5.206,5.206,0,0,0,2.26.515,4.078,4.078,0,0,0,3.757-2.49,9.164,9.164,0,0,0,1.134-4.132,4.42,4.42,0,0,0-.883-3.023" transform="translate(-167.845 -8.975)" fill="#0c0"/>
    <path id="Trazado_7" data-name="Trazado 7" d="M480.026,25.122a16.076,16.076,0,0,0-11.121-4.4,16.239,16.239,0,0,0-11.174,4.425,14.647,14.647,0,0,0-4.907,11.289,14.249,14.249,0,0,0,2.486,8.2,16.414,16.414,0,0,0,13.539,7.3,16.841,16.841,0,0,0,7.413-1.736,15.644,15.644,0,0,0,6.1-5.407,14.643,14.643,0,0,0,2.513-8.412,14.637,14.637,0,0,0-4.848-11.255m-6.543,11.146a3.912,3.912,0,0,1-1.514,3.389,4.785,4.785,0,0,1-6.3.027,3.868,3.868,0,0,1-1.458-3.335,4.005,4.005,0,0,1,1.421-3.377,5.03,5.03,0,0,1,6.437-.045,3.891,3.891,0,0,1,1.41,3.341" transform="translate(-183.374 -8.389)" fill="#0c0"/>
    <path id="Trazado_8" data-name="Trazado 8" d="M191.907,32.869a3.436,3.436,0,0,1,2.431.8,7.1,7.1,0,0,0,3.414,1.308c1.517,0,2.985-1.087,4.485-3.329a6.513,6.513,0,0,0,1.292-3.535,3.847,3.847,0,0,0-1.78-3.1c-.372-.255-.895-.6-1.583-1.048l-.906-.555a14.563,14.563,0,0,0-3.115-1.184,15.83,15.83,0,0,0-4.319-.6,16.534,16.534,0,0,0-10.292,3.738,13.9,13.9,0,0,0-3.937,4.84,14.615,14.615,0,0,0-1.52,6.676A14.945,14.945,0,0,0,177.6,43.61a13.787,13.787,0,0,0,3.938,4.9,17.02,17.02,0,0,0,10.4,3.789,14.175,14.175,0,0,0,8.163-2.275c2.278-1.336,3.433-2.854,3.433-4.507a5.367,5.367,0,0,0-1.452-3.3c-1.766-2.124-3.291-3.157-4.66-3.157a5.617,5.617,0,0,0-2.906,1.134,4.489,4.489,0,0,1-5.61-.218,3.6,3.6,0,0,1-1.269-2.981,3.618,3.618,0,0,1,1.317-3,4.59,4.59,0,0,1,2.957-1.12" transform="translate(-71.304 -8.759)" fill="#0c0"/>
    <path id="Trazado_9" data-name="Trazado 9" d="M240.285,20.717a16.223,16.223,0,0,0-11.174,4.428A14.635,14.635,0,0,0,224.2,36.431a14.237,14.237,0,0,0,2.486,8.2,16.45,16.45,0,0,0,6.081,5.455,16.241,16.241,0,0,0,7.458,1.848,16.853,16.853,0,0,0,7.414-1.733,15.694,15.694,0,0,0,6.1-5.407,14.643,14.643,0,0,0,2.514-8.415,14.636,14.636,0,0,0-4.849-11.256,16.08,16.08,0,0,0-11.12-4.4m4.578,15.551a3.912,3.912,0,0,1-1.514,3.389,4.77,4.77,0,0,1-6.295.03,3.87,3.87,0,0,1-1.459-3.338,4,4,0,0,1,1.423-3.374,5.021,5.021,0,0,1,6.435-.045,3.892,3.892,0,0,1,1.41,3.338" transform="translate(-90.793 -8.389)" fill="#0c0"/>
    <path id="Trazado_10" data-name="Trazado 10" d="M314.532,22.54a8.671,8.671,0,0,0-4.273,1.157,12.921,12.921,0,0,0-2.926,2.09c-.29.3-.564.6-.819.9a9.871,9.871,0,0,0-8.487-4.147,7.631,7.631,0,0,0-5.759,2.708,3.852,3.852,0,0,0-.867-1.439c-.791-.818-2.3-1.214-4.619-1.214-2.368,0-3.926.624-4.623,1.851a4.453,4.453,0,0,0-.621,1.666,15.945,15.945,0,0,0-.09,1.966V47.129a15.681,15.681,0,0,0,.09,2,5.653,5.653,0,0,0,.55,1.663c.672,1.266,2.3,1.881,4.97,1.881s4.3-.587,5.022-1.82a4.99,4.99,0,0,0,.613-1.7,15.978,15.978,0,0,0,.09-1.969V37.6c0-3.931,1.838-3.931,2.529-3.931.722,0,2.641,0,2.641,3.931v9.471a15.952,15.952,0,0,0,.09,1.969,5.726,5.726,0,0,0,.547,1.678c.668,1.311,2.3,1.948,4.977,1.948,2.708,0,4.35-.615,5.016-1.868a5.023,5.023,0,0,0,.614-1.669,15.544,15.544,0,0,0,.092-2V37.658a6.646,6.646,0,0,1,.6-3.147c.114-.206.466-.839,1.934-.839.722,0,2.641,0,2.641,3.931v9.471a15.938,15.938,0,0,0,.09,1.969,5.684,5.684,0,0,0,.549,1.678c.666,1.311,2.294,1.948,4.975,1.948,2.72,0,4.35-.621,4.966-1.872a4.933,4.933,0,0,0,.611-1.7,15.988,15.988,0,0,0,.09-1.969V37.658c0-5.3-1.072-9.175-3.188-11.525a10.379,10.379,0,0,0-8.017-3.592" transform="translate(-113.974 -9.128)" fill="#0c0"/>
  </g>
</svg>
