<svg id="Menu-Icon" xmlns="http://www.w3.org/2000/svg" width="41.68" height="44.395" viewBox="0 0 41.68 44.395">
  <path id="Vector" d="M33.222,44.4H8.455A8.464,8.464,0,0,1,0,35.941V8.458A8.464,8.464,0,0,1,8.455,0H27.982a1.841,1.841,0,0,1,.355.035A2.6,2.6,0,0,1,28.781,0a2.5,2.5,0,0,1,1.8.757L40.923,11.1a2.522,2.522,0,0,1,.718,2.241,1.786,1.786,0,0,1,.035.355V35.941A8.464,8.464,0,0,1,33.222,44.4ZM8.455,3.576A4.888,4.888,0,0,0,3.572,8.458V35.941a4.888,4.888,0,0,0,4.883,4.882H33.222A4.888,4.888,0,0,0,38.1,35.941V15.484H28.763A2.57,2.57,0,0,1,26.2,12.917V3.576ZM29.768,5v6.912H36.68ZM26.3,32.747H15.385a1.692,1.692,0,0,1-1.69-1.689v-.193a1.692,1.692,0,0,1,1.69-1.689H26.3a1.692,1.692,0,0,1,1.69,1.689v.193A1.692,1.692,0,0,1,26.3,32.747ZM28.673,25.6H13.006a1.692,1.692,0,0,1-1.69-1.69v-.193a1.692,1.692,0,0,1,1.69-1.69H28.673a1.692,1.692,0,0,1,1.69,1.69v.193A1.692,1.692,0,0,1,28.673,25.6Z" fill="#fdfdfd"/>
</svg>
