<svg xmlns="http://www.w3.org/2000/svg" xmlns:xlink="http://www.w3.org/1999/xlink" width="33.089" height="38.032" viewBox="0 0 33.089 38.032">
  <defs>
    <clipPath id="clip-path">
      <path id="Trazado_14" data-name="Trazado 14" d="M350.005,151.913l18.017,18.122,6.3-6.264-21.273-12.482a2.3,2.3,0,0,0-1.167-.322,2.346,2.346,0,0,0-1.872.946" transform="translate(-350.005 -150.967)" fill="none"/>
    </clipPath>
    <linearGradient id="linear-gradient" x1="-1.521" y1="2.106" x2="-1.517" y2="2.106" gradientUnits="objectBoundingBox">
      <stop offset="0" stop-color="#32a071"/>
      <stop offset="0.068" stop-color="#2da771"/>
      <stop offset="0.476" stop-color="#15cf74"/>
      <stop offset="0.801" stop-color="#06e775"/>
      <stop offset="1" stop-color="#00f076"/>
    </linearGradient>
    <clipPath id="clip-path-2">
      <path id="Trazado_15" data-name="Trazado 15" d="M346.784,159.119v33.393a2.289,2.289,0,0,0,.411,1.322l18.055-17.967-18.017-18.122a2.286,2.286,0,0,0-.449,1.374" transform="translate(-346.784 -157.745)" fill="none"/>
    </clipPath>
    <linearGradient id="linear-gradient-2" x1="-2.584" y1="1.61" x2="-2.577" y2="1.61" gradientUnits="objectBoundingBox">
      <stop offset="0" stop-color="#00a0ff"/>
      <stop offset="0.007" stop-color="#00a1ff"/>
      <stop offset="0.26" stop-color="#00beff"/>
      <stop offset="0.512" stop-color="#00d2ff"/>
      <stop offset="0.76" stop-color="#00dfff"/>
      <stop offset="1" stop-color="#00e3ff"/>
    </linearGradient>
    <clipPath id="clip-path-3">
      <path id="Trazado_16" data-name="Trazado 16" d="M479.163,249.014l6.188,6.224,7.291-4.278a2.316,2.316,0,0,0,0-4l-7.183-4.215Z" transform="translate(-479.163 -242.75)" fill="none"/>
    </clipPath>
    <linearGradient id="linear-gradient-3" x1="-4.957" y1="3.017" x2="-4.947" y2="3.017" gradientUnits="objectBoundingBox">
      <stop offset="0" stop-color="#ffe000"/>
      <stop offset="0.409" stop-color="#ffbd00"/>
      <stop offset="0.775" stop-color="orange"/>
      <stop offset="1" stop-color="#ff9c00"/>
    </linearGradient>
    <clipPath id="clip-path-4">
      <path id="Trazado_17" data-name="Trazado 17" d="M349.73,305.623a2.318,2.318,0,0,0,3.077.675l21.166-12.419-6.187-6.224Z" transform="translate(-349.73 -287.656)" fill="none"/>
    </clipPath>
    <linearGradient id="linear-gradient-4" x1="-1.473" y1="1.533" x2="-1.469" y2="1.533" gradientUnits="objectBoundingBox">
      <stop offset="0" stop-color="#ff3a44"/>
      <stop offset="1" stop-color="#c31162"/>
    </linearGradient>
  </defs>
  <g id="Grupo_55" data-name="Grupo 55" transform="translate(-604.841 -608.543)">
    <g id="Grupo_33" data-name="Grupo 33" transform="translate(605.29 608.543)" clip-path="url(#clip-path)">
      <rect id="Rectángulo_5" data-name="Rectángulo 5" width="30.167" height="30.89" transform="matrix(0.635, -0.773, 0.773, 0.635, -9.353, 11.384)" fill="url(#linear-gradient)"/>
    </g>
    <g id="Grupo_35" data-name="Grupo 35" transform="translate(604.841 609.488)" clip-path="url(#clip-path-2)">
      <rect id="Rectángulo_6" data-name="Rectángulo 6" width="18.679" height="36.197" transform="translate(-0.213 0.001) rotate(-0.338)" fill="url(#linear-gradient-2)"/>
    </g>
    <g id="Grupo_37" data-name="Grupo 37" transform="translate(623.307 621.346)" clip-path="url(#clip-path-3)">
      <rect id="Rectángulo_7" data-name="Rectángulo 7" width="13.623" height="15.934" transform="translate(-0.973 12.412) rotate(-85.515)" fill="url(#linear-gradient-3)"/>
    </g>
    <g id="Grupo_39" data-name="Grupo 39" transform="translate(605.252 627.61)" clip-path="url(#clip-path-4)">
      <rect id="Rectángulo_8" data-name="Rectángulo 8" width="30.868" height="29.482" transform="matrix(0.833, -0.553, 0.553, 0.833, -8.89, 5.901)" fill="url(#linear-gradient-4)"/>
    </g>
  </g>
</svg>
