<svg xmlns="http://www.w3.org/2000/svg" width="44.395" height="44.395" viewBox="0 0 44.395 44.395">
  <g id="Wallet-Icon" transform="translate(0)">
    <path id="Vector" d="M35.389,44.4H9.006A9.016,9.016,0,0,1,0,35.389V34.248H3.805V30.442h4.44a1.9,1.9,0,1,0,0-3.805H3.806V22.832H0V21.69c0-.254.01-.51.031-.761H0v-7.61A8.254,8.254,0,0,1,8.245,5.073h2.011l.968-2.905A3.167,3.167,0,0,1,14.233,0H28.127a3.171,3.171,0,0,1,3.049,4.042l-.295,1.031h.2a8.254,8.254,0,0,1,8.245,8.245v.267a9.007,9.007,0,0,1,5.073,8.1v13.7A9.016,9.016,0,0,1,35.389,44.4ZM3.805,34.248v1.141a5.207,5.207,0,0,0,5.2,5.2H35.389a5.207,5.207,0,0,0,5.2-5.2V21.69a5.207,5.207,0,0,0-5.2-5.2H9.006a5.207,5.207,0,0,0-5.2,5.2v1.142h4.44a5.708,5.708,0,1,1,0,11.416ZM8.245,8.88a4.444,4.444,0,0,0-4.44,4.439v1.018A9.011,9.011,0,0,1,7.689,12.78l.007-.022.013-.041L8.988,8.88Zm21.548,0h0l-.7,2.465-.446,1.339h6.829a4.459,4.459,0,0,0-4.4-3.8Zm-16.8,0h0l-1.269,3.8h12.9l.822-2.465,1.832-6.414H14.69L13,8.87V8.88Z" fill="#30bc47"/>
  </g>
</svg>
